<?xml version="1.0" encoding="utf-8"?>
<!-- Generator: Adobe Illustrator 21.0.2, SVG Export Plug-In . SVG Version: 6.00 Build 0)  -->
<svg version="1.1" id="Layer_1" xmlns="http://www.w3.org/2000/svg" xmlns:xlink="http://www.w3.org/1999/xlink" x="0px" y="0px"
	 viewBox="0 0 176.8 176.8" style="enable-background:new 0 0 176.8 176.8;" xml:space="preserve">
<style type="text/css">
	.st0{fill:#00B7A1;}
	.st1{fill:#EC008C;}
	.st2{fill:#2E3192;}
</style>
<g>
	<path class="st0" d="M167.1,68.9H85.7c-3.7,0-6.6,2.9-6.6,6.6v86.1c0,3.7,2.9,6.6,6.6,6.6h71.6l8.7,6.1c0.3,0.2,0.6,0.3,0.9,0.3
		c0.3,0,0.5,0,0.6-0.2c0.5-0.3,0.8-0.8,0.9-1.4l0.2-5c2.9-0.6,5.2-3.4,5.2-6.4V75.5C173.8,71.8,170.8,68.9,167.1,68.9z M170.8,161.5
		c0,2-1.5,3.5-3.5,3.5c-0.8,0-1.5,0.6-1.5,1.5l-0.2,3.5l-6.9-4.7c-0.3-0.2-0.6-0.3-0.9-0.3H85.7c-2,0-3.5-1.5-3.5-3.5v-86
		c0-2,1.5-3.5,3.5-3.5h81.5c2,0,3.5,1.5,3.5,3.5C170.8,75.5,170.8,161.5,170.8,161.5z"/>
	<circle class="st0" cx="105.4" cy="126.8" r="3.5"/>
	<circle class="st0" cx="129.4" cy="126.8" r="3.5"/>
	<path class="st0" d="M114.4,140.9c0,2,1.7,3.7,3.7,3.7s3.7-1.7,3.7-3.7H114.4z"/>
</g>
<g>
	<path class="st1" d="M87,62.9h37.7c3.7,0,6.6-2.9,6.6-6.6V16c0-3.7-2.9-6.6-6.6-6.6H96.8l-8.7-6.1C87.8,3.1,87.5,3,87.2,3
		s-0.5,0-0.6,0.2c-0.5,0.3-0.8,0.8-0.9,1.4l-0.2,5c-2.9,0.6-5.2,3.4-5.2,6.4v40.3C80.3,60,83.4,62.9,87,62.9z M83.4,16.2
		c0-2,1.5-3.5,3.5-3.5c0.8,0,1.5-0.6,1.5-1.5l0.2-3.5l6.9,4.7c0.3,0.2,0.6,0.3,0.9,0.3h28.4c2,0,3.5,1.5,3.5,3.5v40.1
		c0,2-1.5,3.5-3.5,3.5H86.9c-2,0-3.5-1.5-3.5-3.5V16.2z"/>
	<circle class="st1" cx="113.4" cy="39.6" r="3.5"/>
	<circle class="st1" cx="91.6" cy="39.6" r="3.5"/>
	<path class="st1" d="M98.2,52.6c0,2,1.7,3.7,3.7,3.7s3.7-1.7,3.7-3.7H98.2z"/>
</g>
<g>
	<g>
		<path class="st2" d="M2.2,44.5V84c0,3.1,2.3,5.8,5.2,6.4l0.2,5c0.2,0.6,0.5,1.1,0.9,1.4C8.6,97,8.8,97,9.1,97s0.6-0.2,0.9-0.3
			l8.7-6.1h48.1c3.7,0,6.6-2.9,6.6-6.6V44.5c0-3.7-2.9-6.6-6.6-6.6H8.9C5.3,37.9,2.2,40.8,2.2,44.5z M5.3,44.5c0-2,1.5-3.5,3.5-3.5
			h58.1c2,0,3.5,1.5,3.5,3.5v39.3c0,2-1.5,3.5-3.5,3.5H18.3c-0.3,0-0.6,0.2-0.9,0.3l-6.9,4.7l-0.2-3.5c0-0.9-0.8-1.5-1.5-1.5
			c-2,0-3.5-1.5-3.5-3.5V44.5z"/>
	</g>
	<circle class="st2" cx="60.3" cy="64.7" r="3.5"/>
	<circle class="st2" cx="38.5" cy="64.7" r="3.5"/>
	<path class="st2" d="M45,77.7c0,2,1.7,3.7,3.7,3.7s3.7-1.7,3.7-3.7H45z"/>
</g>
</svg>
