<?xml version="1.0" encoding="utf-8"?>
<!-- Generator: Adobe Illustrator 21.0.2, SVG Export Plug-In . SVG Version: 6.00 Build 0)  -->
<svg version="1.1" id="Layer_1" xmlns="http://www.w3.org/2000/svg" xmlns:xlink="http://www.w3.org/1999/xlink" x="0px" y="0px"
	 viewBox="0 0 176.8 99.1" style="enable-background:new 0 0 176.8 99.1;" xml:space="preserve">
<style type="text/css">
	.st0{fill:url(#SVGID_1_);}
	.st1{fill:url(#SVGID_2_);}
	.st2{fill:url(#SVGID_3_);}
</style>
<g>
	
		<linearGradient id="SVGID_1_" gradientUnits="userSpaceOnUse" x1="17.1381" y1="298.9072" x2="146.397" y2="377.5599" gradientTransform="matrix(1 0 0 1 0 -258)">
		<stop  offset="0.1894" style="stop-color:#00C1AD"/>
		<stop  offset="0.288" style="stop-color:#02B1B4"/>
		<stop  offset="0.4801" style="stop-color:#0688C5"/>
		<stop  offset="0.7438" style="stop-color:#0C46E1"/>
		<stop  offset="0.9992" style="stop-color:#1300FF"/>
	</linearGradient>
	<path class="st0" d="M84.3,94.1l-4.5-1.3l-8.9-19l5.5-17.9H63.8L60.6,59v14.7L77,98.4h5.4h4.5v-1l0,0C86.9,96,85.8,94.5,84.3,94.1z
		"/>
	
		<linearGradient id="SVGID_2_" gradientUnits="userSpaceOnUse" x1="33.406" y1="272.1722" x2="162.665" y2="350.825" gradientTransform="matrix(1 0 0 1 0 -258)">
		<stop  offset="0.189" style="stop-color:#00C1AD"/>
		<stop  offset="0.288" style="stop-color:#02B1B4"/>
		<stop  offset="0.4801" style="stop-color:#0688C5"/>
		<stop  offset="0.7438" style="stop-color:#0C46E1"/>
		<stop  offset="0.9988" style="stop-color:#1300B5"/>
	</linearGradient>
	<path class="st1" d="M165.3,11c-0.9-3.3-3.3-6-6.4-7.7c-3.9-2.1-5.5-2.8-9.7-2.8c-4.1,0-26,0-26,0l3.1,11h3.5l8.7-3.5l1.1,1.8
		l-18.1,11H0.2C7,27.5,13.6,28.9,22,28.9h23.4c-3.1,3.8-5,8.7-5,14.1v8.2L30,73.5l-1.4,25h4.1H40v-1c0-1.4-1.2-2.9-2.6-3.4l-3.2-0.9
		l5.7-19.4L62.2,52h24.4c5.8,5.1,13.4,8.2,21.7,8.2h27l-20.6,8.4l-4.1-5.2l-0.7,0.5c-1.3,1-1.6,1.8-1.1,4.1l0.9,3.8l3.8,2.4
		l33.7-7.9l4.3-6.4v-3.5l-12-11.9l7.3-14.1l-7.6-1.9v-1.9h27.4c2.8,0,6-2.2,7.3-5l2.4-5.2L165.3,11z"/>
	
		<linearGradient id="SVGID_3_" gradientUnits="userSpaceOnUse" x1="21.6056" y1="291.5652" x2="150.8645" y2="370.218" gradientTransform="matrix(1 0 0 1 0 -258)">
		<stop  offset="0.1894" style="stop-color:#00C1AD"/>
		<stop  offset="0.288" style="stop-color:#02B1B4"/>
		<stop  offset="0.4801" style="stop-color:#0688C5"/>
		<stop  offset="0.7438" style="stop-color:#0C46E1"/>
		<stop  offset="0.9992" style="stop-color:#1300FF"/>
	</linearGradient>
	<path class="st2" d="M113.2,94.1l-2.6-0.8l7.8-16l-5.3,1.3l-5-3.2l-4.7,23.1h4.8h7.6v-1C115.8,96,114.6,94.5,113.2,94.1z"/>
</g>
</svg>
